<svg width="539" height="219" viewBox="0 0 539 219" fill="none" xmlns="http://www.w3.org/2000/svg">
<g filter="url(#filter0_d_100_38)">
<path d="M51.4727 113.602C51.6289 114.383 51.5703 115.242 51.2969 116.18C51.0234 117.117 50.5742 118.172 49.9492 119.344C49.3633 120.477 48.5625 121.531 47.5469 122.508C46.8828 123.133 46.3555 123.445 45.9648 123.445C45.7305 123.445 45.1836 123.113 44.3242 122.449C43.5039 121.746 42.7422 121.121 42.0391 120.574C41.375 119.988 40.7891 119.461 40.2812 118.992C39.8125 118.523 39.5781 118.133 39.5781 117.82C40.0859 116.766 40.457 115.965 40.6914 115.418C41.4727 113.66 42.1367 112.273 42.6836 111.258C43.2695 110.242 44.168 108.738 45.3789 106.746C46.082 107.332 46.9414 108.035 47.957 108.855C49.0117 109.637 49.8125 110.379 50.3594 111.082C50.9453 111.785 51.3164 112.625 51.4727 113.602ZM69.168 107.859C68.4648 120.125 64.9102 130.672 58.5039 139.5C52.1758 148.055 44.5781 152.371 35.7109 152.449C31.1016 152.254 27.4492 150.73 24.7539 147.879C22.0586 145.066 20.6328 141.141 20.4766 136.102C20.4375 128.133 23.0547 119.48 28.3281 110.145C29.3438 108.27 29.9492 107.684 30.1445 108.387C30.3398 109.051 30.3203 109.734 30.0859 110.438C26.6094 117.312 24.832 123.25 24.7539 128.25C24.9102 132 26.2383 134.852 28.7383 136.805C31.2773 138.758 34.6172 139.812 38.7578 139.969C43.8359 139.969 48.7188 138.621 53.4062 135.926C58.0547 132.84 61.2969 128.719 63.1328 123.562C63.8359 121.766 64.1875 119.383 64.1875 116.414C64.1875 115.281 64.168 113.855 64.1289 112.137C64.1289 110.379 64.1289 109.129 64.1289 108.387C64.2852 106.238 64.793 103.875 65.6523 101.297C66.5117 98.6797 67.2148 96.7852 67.7617 95.6133C68.3477 94.4414 68.8359 93.8555 69.2266 93.8555C69.5 93.8555 69.6172 94.168 69.5781 94.793C69.5391 95.3789 69.4805 96.5312 69.4023 98.25C69.3242 99.9688 69.2461 103.172 69.168 107.859ZM83.582 99.0117C83.5039 101.824 83.4453 104.363 83.4062 106.629C83.3672 108.895 83.25 110.809 83.0547 112.371C82.7422 115.73 82.0977 118.719 81.1211 121.336C80.1445 123.914 79.3633 125.633 78.7773 126.492C78.2305 127.352 77.7812 127.977 77.4297 128.367C77 128.758 76.668 128.895 76.4336 128.777C76.1992 128.621 76.1211 128.387 76.1992 128.074C76.1992 127.996 76.4336 126.824 76.9023 124.559C77.3711 122.254 77.6641 120.027 77.7812 117.879C77.8984 115.73 77.918 112.703 77.8398 108.797C77.7617 104.852 77.8594 101.844 78.1328 99.7734C78.2891 98.5625 78.543 97.3125 78.8945 96.0234C79.2852 94.7344 79.7148 93.4648 80.1836 92.2148C80.6523 90.9648 81.1406 89.793 81.6484 88.6992C82.1953 87.5664 82.6836 86.5703 83.1133 85.7109C83.4648 85.1641 83.7773 84.9492 84.0508 85.0664C84.3242 85.1836 84.4414 85.3984 84.4023 85.7109C84.3242 86.0234 84.2266 86.7656 84.1094 87.9375C84.0312 89.0703 83.9531 90.3594 83.875 91.8047C83.7969 93.2109 83.7188 94.5977 83.6406 95.9648C83.6016 97.332 83.582 98.3477 83.582 99.0117ZM121.258 95.6719C119.305 102.625 117.117 106.707 114.695 107.918C111.297 109.559 109.227 110.652 108.484 111.199C107.742 111.785 107.254 112.234 107.02 112.547C106.238 113.641 105.477 115.047 104.734 116.766C103.445 120.047 102.41 122.566 101.629 124.324C100.34 127.02 98.4258 128.934 95.8867 130.066C94.6758 130.535 93.0742 130.945 91.082 131.297C89.0117 131.727 87.3906 131.941 86.2188 131.941C85.2031 132.059 84.5586 131.824 84.2852 131.238C84.207 130.887 84.5977 130.398 85.457 129.773C85.7695 129.539 86.4336 129.051 87.4492 128.309C88.4648 127.527 90.2812 126.316 92.8984 124.676C94.9297 123.309 95.8867 122.664 95.7695 122.742C98.0352 121.102 99.5977 119.695 100.457 118.523C100.73 118.172 101.648 116.219 103.211 112.664C104.812 109.109 106.023 106.805 106.844 105.75C107.664 104.656 108.953 103.543 110.711 102.41C111.375 102.059 112.527 101.453 114.168 100.594C115.613 99.8906 116.629 99.2852 117.215 98.7773C117.762 98.3086 118.465 97.293 119.324 95.7305C120.184 94.207 120.789 93.4648 121.141 93.5039C121.492 93.6211 121.531 94.3438 121.258 95.6719ZM100.984 171.492C100.984 171.727 101.551 172.312 102.684 173.25C103.855 174.188 104.715 174.891 105.262 175.359C105.848 175.867 106.297 176.121 106.609 176.121C107.859 176.121 109.539 173.992 111.648 169.734C112.508 170.359 113.504 171.238 114.637 172.371C115.77 173.504 116.551 174.07 116.98 174.07C117.645 174.07 118.68 173.074 120.086 171.082C121.531 169.051 122.254 167.293 122.254 165.809C122.176 164.559 121.453 163.211 120.086 161.766C118.758 160.359 117.605 159.656 116.629 159.656C116.316 159.656 115.672 160.457 114.695 162.059C113.758 163.66 112.898 165.105 112.117 166.395C111.453 165.457 110.477 164.363 109.188 163.113C107.938 161.902 106.98 161.434 106.316 161.707C105.965 161.707 104.988 163.211 103.387 166.219C101.785 169.227 100.984 170.984 100.984 171.492ZM131.863 99.0117C131.785 101.824 131.727 104.363 131.688 106.629C131.648 108.895 131.531 110.809 131.336 112.371C131.023 115.73 130.379 118.719 129.402 121.336C128.426 123.914 127.645 125.633 127.059 126.492C126.512 127.352 126.062 127.977 125.711 128.367C125.281 128.758 124.949 128.895 124.715 128.777C124.48 128.621 124.402 128.387 124.48 128.074C124.48 127.996 124.715 126.824 125.184 124.559C125.652 122.254 125.945 120.027 126.062 117.879C126.18 115.73 126.199 112.703 126.121 108.797C126.043 104.852 126.141 101.844 126.414 99.7734C126.57 98.5625 126.824 97.3125 127.176 96.0234C127.566 94.7344 127.996 93.4648 128.465 92.2148C128.934 90.9648 129.422 89.793 129.93 88.6992C130.477 87.5664 130.965 86.5703 131.395 85.7109C131.746 85.1641 132.059 84.9492 132.332 85.0664C132.605 85.1836 132.723 85.3984 132.684 85.7109C132.605 86.0234 132.508 86.7656 132.391 87.9375C132.312 89.0703 132.234 90.3594 132.156 91.8047C132.078 93.2109 132 94.5977 131.922 95.9648C131.883 97.332 131.863 98.3477 131.863 99.0117ZM211.668 113.777C209.637 116.59 207.605 118.719 205.574 120.164C202.41 122.547 199.344 124.363 196.375 125.613C193.445 126.824 190.105 127.918 186.355 128.895C182.645 129.871 178.426 130.594 173.699 131.062C168.973 131.531 164.52 131.766 160.34 131.766C157.723 131.766 154.734 131.609 151.375 131.297C148.055 130.945 145.691 130.301 144.285 129.363C141.824 127.84 140.594 125.047 140.594 120.984C140.594 118.758 140.809 116.102 141.238 113.016C141.629 110.086 142.098 108.621 142.645 108.621C143.074 108.621 143.367 109.52 143.523 111.316C143.953 114.051 145.32 115.906 147.625 116.883C149.93 117.859 153.445 118.523 158.172 118.875C162.938 119.227 166.941 119.402 170.184 119.402C172.801 119.402 175.789 119.285 179.148 119.051C182.469 118.816 185.77 118.406 189.051 117.82C192.098 117.312 195.262 116.551 198.543 115.535C201.863 114.48 204.891 113.113 207.625 111.434C210.359 109.754 212.117 108.484 212.898 107.625C213.68 107.352 213.953 108.172 213.719 110.086C214.227 110.164 214.832 110.125 215.535 109.969C215.965 110.203 216.238 110.594 216.355 111.141C216.512 111.648 216.551 112.195 216.473 112.781C216.434 113.328 216.316 113.836 216.121 114.305C215.926 114.734 215.73 114.969 215.535 115.008L211.668 113.777ZM163.27 95.0859C163.27 94.5781 164.07 92.8203 165.672 89.8125C167.273 86.8047 168.25 85.3008 168.602 85.3008C169.266 85.0273 170.223 85.5156 171.473 86.7656C172.762 87.9766 173.738 89.0508 174.402 89.9883C175.184 88.6992 176.043 87.2539 176.98 85.6523C177.957 84.0508 178.602 83.25 178.914 83.25C179.891 83.25 181.043 83.9727 182.371 85.418C183.738 86.8242 184.461 88.1523 184.539 89.4023C184.539 90.8867 183.816 92.6445 182.371 94.6758C180.965 96.668 179.93 97.6641 179.266 97.6641C178.836 97.6641 178.055 97.0977 176.922 95.9648C175.789 94.832 174.793 93.9531 173.934 93.3281C171.824 97.5859 170.145 99.7148 168.895 99.7148C168.582 99.7148 168.133 99.4609 167.547 98.9531C167 98.4844 166.141 97.7812 164.969 96.8438C163.836 95.9062 163.27 95.3203 163.27 95.0859ZM239.383 107.059C238.25 108.113 237.273 108.797 236.453 109.109C234.93 109.617 233.621 109.734 232.527 109.461C231.473 109.188 230.398 108.973 229.305 108.816C228.875 108.816 228.289 109.109 227.547 109.695C225.359 111.414 223.973 112.527 223.387 113.035C222.215 114.051 221.473 114.695 221.16 114.969C219.871 115.906 218.758 116.375 217.82 116.375L215.535 115.672C215.027 114.773 214.715 113.895 214.598 113.035C214.441 112.215 214.754 111.414 215.535 110.633C216.863 110.477 218.504 110.008 220.457 109.227C222.137 108.484 223.445 107.801 224.383 107.176C225.984 106.16 226.785 105.203 226.785 104.305C226.434 102.195 225.477 101.141 223.914 101.141L222.215 101.375C221.902 101.492 221.629 101.453 221.395 101.258C221.238 101.102 221.199 100.828 221.277 100.438C221.824 98.7969 223.094 97.4102 225.086 96.2773C227.078 95.1445 228.895 94.5781 230.535 94.5781C231.629 94.5781 232.996 94.7734 234.637 95.1641C236.277 95.5547 237.098 96.5117 237.098 98.0352C237.098 99.0898 236.824 100.086 236.277 101.023C235.691 102.039 235.398 102.605 235.398 102.723C235.359 102.918 235.379 103.074 235.457 103.191C235.574 103.27 235.672 103.309 235.75 103.309C236.531 103.426 237.742 103.035 239.383 102.137C239.5 102.371 239.637 102.801 239.793 103.426C239.91 103.895 239.969 104.266 239.969 104.539C239.969 105.203 239.93 105.652 239.852 105.887C239.773 106.238 239.617 106.629 239.383 107.059ZM247 101C246.062 101 244.949 101.566 243.66 102.699L239.441 106.391C239.129 105.57 238.953 104.75 238.914 103.93C238.836 103.109 239.012 102.289 239.441 101.469C240.145 101.039 240.809 100.531 241.434 99.9453C241.902 99.5156 242.41 99.0273 242.957 98.4805L243.543 97.8945C244.012 97.9727 244.383 98.0508 244.656 98.1289C245.008 98.207 245.359 98.3828 245.711 98.6562C246.062 99.0469 246.375 99.5156 246.648 100.062C246.648 100.062 246.766 100.375 247 101ZM236.453 59.8086C236.453 58.9492 237.195 57.0938 238.68 54.2422C240.125 51.3516 241.062 49.9062 241.492 49.9062C242.352 49.5547 243.602 50.2188 245.242 51.8984C246.883 53.5391 247.762 54.8281 247.879 55.7656C247.879 57.0156 247.195 58.8125 245.828 61.1562C244.461 63.5 243.465 64.6719 242.84 64.6719C242.605 64.5547 241.785 64.0469 240.379 63.1484C239.012 62.2109 237.996 61.5078 237.332 61.0391C236.746 60.6484 236.453 60.2383 236.453 59.8086ZM285.145 80.4922C285.145 80.2578 284.617 79.9258 283.562 79.4961C282.547 79.0273 281.766 78.793 281.219 78.793C279.773 78.793 278.445 79.2031 277.234 80.0234C275.945 80.9219 274.812 81.918 273.836 83.0117C272.898 84.1055 272.273 84.8672 271.961 85.2969C271.141 86.3516 270.574 87.2305 270.262 87.9336C270.77 87.9336 271.805 87.8164 273.367 87.582C274.93 87.3086 276.531 86.8203 278.172 86.1172C279.891 85.375 281.375 84.5352 282.625 83.5977C284.305 82.4648 285.145 81.4297 285.145 80.4922ZM243.543 97.8945C244.402 96.8008 245.281 95.8828 246.18 95.1406C247.547 93.9297 248.68 93.3242 249.578 93.3242C250.086 93.3242 250.789 93.5586 251.688 94.0273C252.273 94.3398 252.84 94.6328 253.387 94.9062C253.777 94.9844 254.734 93.9297 256.258 91.7422C257.117 90.2969 257.918 89.1836 258.66 88.4023C259.676 87.1914 260.633 86.5859 261.531 86.5859C261.727 86.5859 262.547 86.7812 263.992 87.1719C265.398 87.6016 266.414 87.8164 267.039 87.8164C267.234 87.8164 267.996 86.8984 269.324 85.0625C270.145 83.8906 270.984 82.6992 271.844 81.4883C272.703 80.2773 273.582 79.0664 274.48 77.8555C275.77 76.293 277.293 74.8281 279.051 73.4609C280.73 72.0938 282.566 71.4102 284.559 71.4102C286.316 71.4102 287.547 71.8398 288.25 72.6992C288.992 73.5586 289.363 74.75 289.363 76.2734C289.207 77.6797 289.012 78.9297 288.777 80.0234C288.348 81.3906 287.742 82.875 286.961 84.4766C285.906 86.4688 284.891 88.1875 283.914 89.6328C282.742 91.3516 281.219 92.9531 279.344 94.4375C277.508 95.9219 275.633 97.0547 273.719 97.8359C271.883 98.5781 269.93 98.9492 267.859 98.9492C266.102 98.9492 264.734 98.8125 263.758 98.5391C262.547 98.2266 261.434 97.6797 260.418 96.8984C259.402 96.0781 258.777 95.3555 258.543 94.7305C258.23 95.1602 258.074 95.4141 258.074 95.4922C257.527 96.1172 257.078 96.6641 256.727 97.1328C256.375 97.5625 256.102 97.8945 255.906 98.1289C255.203 99.0273 254.559 99.7305 253.973 100.238C252.801 101.449 251.648 102.055 250.516 102.055C250.359 102.055 249.871 101.879 249.051 101.527C248.27 101.176 247.605 101 247.059 101C245.809 100.57 244.637 99.5352 243.543 97.8945ZM314.852 115.535C313.484 119.324 312.215 122.117 311.043 123.914C309.871 125.711 308.953 126.824 308.289 127.254C307.625 127.684 306.629 128.152 305.301 128.66C303.973 129.129 301.941 129.812 299.207 130.711C296.512 131.57 294.91 132 294.402 132C294.09 132 293.934 131.922 293.934 131.766C293.621 131.336 295.242 129.93 298.797 127.547C302.352 125.164 304.637 123.602 305.652 122.859C306.707 122.117 307.762 121.043 308.816 119.637C309.91 118.191 310.711 116.57 311.219 114.773C310.672 114.695 310.105 114.812 309.52 115.125C308.973 115.398 308.426 115.535 307.879 115.535C306.434 115.496 305.223 115.027 304.246 114.129C303.27 113.23 302.859 112.234 303.016 111.141C303.172 110.477 303.387 109.715 303.66 108.855C303.973 107.957 304.598 106.551 305.535 104.637C306.473 102.723 307.41 101.141 308.348 99.8906C309.324 98.6406 310.281 98.0156 311.219 98.0156C312.82 98.0156 314.148 98.6992 315.203 100.066C316.297 101.434 316.844 103.074 316.844 104.988C316.844 105.965 316.785 106.941 316.668 107.918C316.551 108.855 316.414 109.656 316.258 110.32C316.141 110.945 315.945 111.766 315.672 112.781C315.438 113.758 315.164 114.676 314.852 115.535ZM353.641 101.707C353.797 101.512 354.031 101.375 354.344 101.297C354.656 101.219 354.969 101.18 355.281 101.18C355.594 101.18 355.887 101.238 356.16 101.355C356.473 101.434 356.668 101.551 356.746 101.707C356.434 102.215 356.238 102.547 356.16 102.703C358.074 103.484 359.891 104.363 361.609 105.34C363.289 106.238 364.129 107.41 364.129 108.855C364.129 109.246 364.012 109.695 363.777 110.203C361.902 114.656 359.637 117.645 356.98 119.168C355.965 119.793 352.762 120.809 347.371 122.215C341.98 123.582 338.074 125.32 335.652 127.43C333.27 129.539 331.57 131.844 330.555 134.344C329.539 136.844 328.68 139.246 327.977 141.551C327.312 143.895 326.648 147.703 325.984 152.977C325.32 158.25 324.637 165.242 323.934 173.953C323.27 182.664 322.801 188.992 322.527 192.938C322.293 196.883 322.02 198.855 321.707 198.855C321.238 198.816 320.984 197.176 320.945 193.934C320.906 192.371 321.062 187.117 321.414 178.172C321.727 169.266 322.215 161.453 322.879 154.734C323.582 148.016 324.715 142.195 326.277 137.273C326.707 135.672 327.352 133.992 328.211 132.234C329.773 128.875 331.57 125.965 333.602 123.504C334.344 122.449 335.691 121.004 337.645 119.168C339.598 117.293 342.41 115.262 346.082 113.074L353.641 101.707ZM363.484 87.0508C363.289 88.0664 363.133 88.9648 363.016 89.7461L362.723 91.6211C362.254 94.2383 361.746 95.5469 361.199 95.5469L356.746 102.637C356.434 102.871 356.102 103.008 355.75 103.047C355.398 103.125 355.086 103.145 354.812 103.105C354.5 103.105 354.246 103.047 354.051 102.93C353.816 102.852 353.68 102.754 353.641 102.637L357.801 95.5469C358.465 93.5547 358.914 90.957 359.148 87.7539C359.305 85.0977 359.617 81.875 360.086 78.0859C360.555 74.2578 360.926 71.9141 361.199 71.0547C361.473 69.8438 361.941 68.3789 362.605 66.6602C363.191 65.1367 364.168 63.0273 365.535 60.332C365.77 59.9805 365.965 59.8047 366.121 59.8047C366.277 59.8047 366.355 60.0586 366.355 60.5664C366.355 61.1523 366.062 63.7305 365.477 68.3008C364.891 72.832 364.48 76.2109 364.246 78.4375L363.484 87.0508ZM369.051 100C365.535 100 362.938 98.6328 361.258 95.8984C359.891 93.6719 359.207 90.8008 359.207 87.2852C359.324 86.4648 359.52 85.5469 359.793 84.5312C360.027 83.5156 360.359 82.5391 360.789 81.6016C361.18 80.6641 361.668 79.8633 362.254 79.1992C362.801 78.4961 363.465 78.0664 364.246 77.9102C364.246 80.8789 364.598 83.1641 365.301 84.7656C365.809 85.8203 366.648 86.582 367.82 87.0508C369.031 87.5195 370.281 87.6758 371.57 87.5195C372.117 86.0742 372.645 84.668 373.152 83.3008C373.23 83.1445 373.895 81.582 375.145 78.6133C376.121 76.543 377.215 74.8242 378.426 73.457C380.262 71.4648 382.293 70.4688 384.52 70.4688C385.574 70.4688 386.453 70.6641 387.156 71.0547C387.898 71.4062 388.387 72.0117 388.621 72.8711C388.699 73.6914 388.465 74.3555 387.918 74.8633C387.41 75.3711 387 75.625 386.688 75.625C386.609 75.625 386.121 75.5078 385.223 75.2734C384.363 75.0391 383.562 74.9219 382.82 74.9219C381.141 74.9219 379.656 75.6641 378.367 77.1484C377.117 78.6328 376.492 79.9219 376.492 81.0156C376.492 81.9141 376.902 82.832 377.723 83.7695C378.582 84.668 379.734 85.1172 381.18 85.1172C383.016 85.0391 384.852 83.6719 386.688 81.0156C387.078 80.3906 387.645 79.4141 388.387 78.0859C389.168 76.7578 389.793 76.1914 390.262 76.3867C390.691 76.543 390.672 77.2656 390.203 78.5547C389.773 79.8047 389.051 81.4648 388.035 83.5352C386.59 86.4258 384.988 89.082 383.23 91.5039C379.051 97.168 374.324 100 369.051 100ZM415.164 112.43C415.164 114.109 414.871 116.004 414.285 118.113C413.738 120.184 413.016 122.059 412.117 123.738C410.711 126.434 409.266 128.484 407.781 129.891C406.297 131.297 404.637 132 402.801 132C399.91 132 398.465 130.242 398.465 126.727C398.465 125.516 398.66 124.227 399.051 122.859C399.559 121.414 400.184 120.066 400.926 118.816C401.668 117.566 402.293 116.512 402.801 115.652C402.293 115.496 401.98 115.398 401.863 115.359C401.746 115.32 401.648 115.301 401.57 115.301C401.492 114.988 401.746 114.148 402.332 112.781L406.492 103.348C406.883 102.371 407.332 101.883 407.84 101.883C408.23 101.883 408.816 102.137 409.598 102.645C410.418 103.113 411.102 103.543 411.648 103.934C412.938 105.105 413.836 106.238 414.344 107.332C414.891 108.426 415.164 110.125 415.164 112.43ZM409.48 121.688C409.48 120.555 409.09 119.637 408.309 118.934C407.918 118.543 407.352 118.133 406.609 117.703C405.906 117.234 405.32 116.961 404.852 116.883C404.5 116.883 403.875 117.566 402.977 118.934C402.117 120.301 401.688 121.453 401.688 122.391C401.688 124.148 402.742 125.027 404.852 125.027C405.789 125.027 406.785 124.695 407.84 124.031C408.934 123.328 409.48 122.547 409.48 121.688ZM474.051 44.6953C474.285 44.7734 474.148 45.418 473.641 46.6289C473.523 47.1367 473.25 47.7617 472.82 48.5039C471.453 50.8086 468.816 54.0508 464.91 58.2305C464.012 59.0898 463.133 59.9492 462.273 60.8086C461.414 61.6289 460.574 62.4492 459.754 63.2695C460.066 62.3711 460.457 61.4336 460.926 60.457C461.277 59.793 461.961 58.8555 462.977 57.6445C465.867 54.5195 468.074 52.0781 469.598 50.3203C471.668 47.8594 473.152 45.9844 474.051 44.6953ZM444.988 110.672C444.988 109.227 444.09 108.113 442.293 107.332C440.496 106.59 438.152 106.219 435.262 106.219C433.738 106.219 432.742 106.336 432.273 106.57C430.672 107.273 429.871 108.875 429.871 111.375C429.871 113.758 430.496 115.633 431.746 117C432.801 118.133 434.207 118.699 435.965 118.699C438.699 118.699 440.887 117.801 442.527 116.004C444.168 114.207 444.988 112.43 444.988 110.672ZM449.031 109.91C448.719 109.988 448.328 110.926 447.859 112.723C447.273 114.676 446.902 115.867 446.746 116.297C444.949 121.102 443.602 124.266 442.703 125.789C440.008 129.93 436.648 132 432.625 132C429.812 132 427.684 130.633 426.238 127.898C424.832 125.203 424.129 121.336 424.129 116.297C424.129 114.266 424.52 110.672 425.301 105.516C426.121 100.086 426.824 95.6914 427.41 92.332C428.035 88.6211 428.621 85.3594 429.168 82.5469C429.637 79.5781 430.184 77.3516 430.809 75.8672L434.793 67.6055C434.949 67.3711 435.145 67.3125 435.379 67.4297C435.535 67.5859 435.594 67.918 435.555 68.4258C435.516 68.8945 435.359 69.9297 435.086 71.5312C435.047 71.5703 434.188 77.3125 432.508 88.7578C432 91.9219 431.609 94.4805 431.336 96.4336C431.062 98.3867 430.887 99.7344 430.809 100.477C431.395 100.477 435.027 96.6094 441.707 88.875C451.746 77.2734 457.82 70.3008 459.93 67.957C462.508 65.0664 464.773 62.5078 466.727 60.2812C468.68 58.0547 470.301 56.1797 471.59 54.6562C477.02 48.2109 481.414 42.293 484.773 36.9023C485.516 35.8477 485.945 35.3594 486.062 35.4375C486.18 35.5156 486.199 35.8086 486.121 36.3164C485.457 38.7773 485.086 40.1055 485.008 40.3008C484.031 42.957 482.586 45.75 480.672 48.6797C479.461 50.7891 477.664 53.3867 475.281 56.4727C473.055 59.4023 469.832 63.3281 465.613 68.25C465.496 68.3281 463.328 70.7109 459.109 75.3984C457.742 76.9219 456.375 78.4844 455.008 80.0859C453.641 81.6484 452.293 83.25 450.965 84.8906L443.758 93.2695L437.195 100.711C437.234 100.711 437.273 100.73 437.312 100.77C437.352 100.77 437.41 100.77 437.488 100.77L446.277 102.645C446.863 102.801 447.43 102.977 447.977 103.172C448.562 103.328 449.148 103.465 449.734 103.582C452.273 104.324 453.992 104.695 454.891 104.695C455.789 104.695 457.195 103.562 459.109 101.297C460.125 100.047 460.887 99.0898 461.395 98.4258C461.668 98.3086 462 98.2891 462.391 98.3672C462.859 98.4844 463.152 98.543 463.27 98.543L464.266 98.4258C464.852 98.3477 465.32 98.0547 465.672 97.5469C465.828 97.3125 465.984 97.0781 466.141 96.8438C466.297 96.6094 466.473 96.375 466.668 96.1406C467.41 95.0469 467.957 94.4609 468.309 94.3828C468.738 94.4609 469.422 94.6172 470.359 94.8516C470.711 94.8125 471.434 94.0898 472.527 92.6836L473.875 90.8672C474.227 90.8672 474.734 91.043 475.398 91.3945L475.984 91.1016C476.727 90.6328 477.195 90.1445 477.391 89.6367C477.586 89.0508 477.684 88.5039 477.684 87.9961C477.684 87.7227 477.645 86.7266 477.566 85.0078V82.7227C478.23 80.9258 479.051 79.168 480.027 77.4492C481.043 75.6914 481.824 74.3438 482.371 73.4062C482.41 73.25 482.605 73.0352 482.957 72.7617C483.113 72.7617 483.191 73.5234 483.191 75.0469C483.191 75.5156 483.191 76.0039 483.191 76.5117C483.191 76.9805 483.191 77.4492 483.191 77.918C483.191 79.3242 483.094 80.9062 482.898 82.6641C482.703 84.7734 481.863 87.1953 480.379 89.9297C478.855 92.6641 477.391 94.6953 475.984 96.0234C475.555 96.4531 474.988 96.9219 474.285 97.4297C473.934 97.6641 473.582 97.8984 473.23 98.1328C472.918 98.3281 472.605 98.5234 472.293 98.7188C471.121 99.5781 470.438 100.086 470.242 100.242C469.773 100.633 469.227 100.984 468.602 101.297L466.551 102.176C466.121 102.527 465.691 102.859 465.262 103.172C464.871 103.445 464.5 103.738 464.148 104.051L460.516 106.102C460.047 106.414 459.266 107.176 458.172 108.387C456.297 110.379 454.695 111.375 453.367 111.375C453.25 111.375 452.371 111.023 450.73 110.32C450.145 110.086 449.578 109.969 449.031 109.969V109.91ZM437.195 55.3008C437.195 54.832 438.016 53.0547 439.656 49.9688C441.336 46.8828 442.371 45.3398 442.762 45.3398C443.387 45.3398 444.363 45.9063 445.691 47.0391C447.059 48.1719 447.977 49.2461 448.445 50.2617C449.305 48.8555 450.125 47.4883 450.906 46.1602C452.039 44.2852 452.742 43.3477 453.016 43.3477C453.953 43.3477 455.145 44.0117 456.59 45.3398C457.996 46.8242 458.699 48.1914 458.699 49.4414C458.699 50.8867 457.996 52.6836 456.59 54.832C455.145 56.9023 454.109 57.9375 453.484 57.9375C452.977 57.9375 452.254 57.4492 451.316 56.4727C450.027 55.1055 448.953 54.1094 448.094 53.4844C445.945 57.8594 444.266 60.0469 443.055 60.0469C442.781 60.0469 441.727 59.3242 439.891 57.8789C438.094 56.4336 437.195 55.5742 437.195 55.3008ZM442.527 40.7695C442.527 40.3789 443.25 38.6602 444.695 35.6133C446.18 32.5273 447.137 30.9844 447.566 30.9844C448.66 30.9844 449.871 31.6484 451.199 32.9766C452.527 34.4609 453.191 35.8867 453.191 37.2539C453.191 38.543 452.566 40.3203 451.316 42.5859C450.105 44.8516 449.207 45.9844 448.621 45.9844C448.27 45.9844 447.488 45.457 446.277 44.4023C445.066 43.3086 444.129 42.5273 443.465 42.0586C442.84 41.5898 442.527 41.1602 442.527 40.7695ZM472.293 30.457C472.293 29.5977 473.016 27.7422 474.461 24.8906C475.945 22 476.902 20.5547 477.332 20.5547C478.191 20.2031 479.441 20.8672 481.082 22.5469C482.723 24.1875 483.602 25.4766 483.719 26.4141C483.719 27.6641 483.035 29.4609 481.668 31.8047C480.301 34.1484 479.305 35.3203 478.68 35.3203C478.445 35.2031 477.625 34.6953 476.219 33.7969C474.852 32.8594 473.836 32.1562 473.172 31.6875C472.586 31.2969 472.293 30.8867 472.293 30.457ZM494.91 88.0117C494.832 90.8242 494.773 93.3633 494.734 95.6289C494.695 97.8945 494.578 99.8086 494.383 101.371C494.07 104.73 493.426 107.719 492.449 110.336C491.473 112.914 490.691 114.633 490.105 115.492C489.559 116.352 489.109 116.977 488.758 117.367C488.328 117.758 487.996 117.895 487.762 117.777C487.527 117.621 487.449 117.387 487.527 117.074C487.527 116.996 487.762 115.824 488.23 113.559C488.699 111.254 488.992 109.027 489.109 106.879C489.227 104.73 489.246 101.703 489.168 97.7969C489.09 93.8516 489.188 90.8438 489.461 88.7734C489.617 87.5625 489.871 86.3125 490.223 85.0234C490.613 83.7344 491.043 82.4648 491.512 81.2148C491.98 79.9648 492.469 78.793 492.977 77.6992C493.523 76.5664 494.012 75.5703 494.441 74.7109C494.793 74.1641 495.105 73.9492 495.379 74.0664C495.652 74.1836 495.77 74.3984 495.73 74.7109C495.652 75.0234 495.555 75.7656 495.438 76.9375C495.359 78.0703 495.281 79.3594 495.203 80.8047C495.125 82.2109 495.047 83.5977 494.969 84.9648C494.93 86.332 494.91 87.3477 494.91 88.0117ZM509.031 97.8398C509.305 97.0195 509.891 96.8828 510.789 97.4297C515.828 100.477 518.348 104.559 518.348 109.676C518.152 113.504 517.332 116.863 515.887 119.754C514.48 122.605 513.035 124.773 511.551 126.258C509.012 128.836 505.34 130.73 500.535 131.941C499.949 132.059 499.48 132.117 499.129 132.117C498.66 132.117 498.426 132 498.426 131.766C498.426 131.336 499.129 130.613 500.535 129.598C503.348 127.645 505.984 125.418 508.445 122.918C510.828 120.535 512.02 118.953 512.02 118.172C512.02 116.141 509.793 113.309 505.34 109.676C504.52 109.012 504.266 108.191 504.578 107.215C505.75 104.949 507.234 101.824 509.031 97.8398Z" fill="white"/>
</g>
<defs>
<filter id="filter0_d_100_38" x="0.417969" y="0.0273438" width="537.93" height="218.828" filterUnits="userSpaceOnUse" color-interpolation-filters="sRGB">
<feFlood flood-opacity="0" result="BackgroundImageFix"/>
<feColorMatrix in="SourceAlpha" type="matrix" values="0 0 0 0 0 0 0 0 0 0 0 0 0 0 0 0 0 0 127 0" result="hardAlpha"/>
<feMorphology radius="10" operator="dilate" in="SourceAlpha" result="effect1_dropShadow_100_38"/>
<feOffset/>
<feGaussianBlur stdDeviation="5"/>
<feComposite in2="hardAlpha" operator="out"/>
<feColorMatrix type="matrix" values="0 0 0 0 0 0 0 0 0 0 0 0 0 0 0 0 0 0 0.5 0"/>
<feBlend mode="normal" in2="BackgroundImageFix" result="effect1_dropShadow_100_38"/>
<feBlend mode="normal" in="SourceGraphic" in2="effect1_dropShadow_100_38" result="shape"/>
</filter>
</defs>
</svg>
